<?xml version="1.0" encoding="utf-8"?>
<!-- Generator: Adobe Illustrator 23.0.1, SVG Export Plug-In . SVG Version: 6.00 Build 0)  -->
<svg version="1.1" id="レイヤー_1" xmlns="http://www.w3.org/2000/svg" xmlns:xlink="http://www.w3.org/1999/xlink" x="0px"
	 y="0px" viewBox="0 0 1920 102" style="enable-background:new 0 0 1920 102;" xml:space="preserve">
<style type="text/css">
	.st0{fill:#040000;}
	.st1{fill:none;stroke:#734C23;stroke-width:2;stroke-miterlimit:10;}
	.st2{fill:none;stroke:#8A6139;stroke-miterlimit:10;}
	.st3{fill:none;}
	.st4{fill:#FFFFFF;}
	.st5{font-family:'Phosphate-Inline';}
	.st6{font-size:48px;}
	.st7{font-family:'DFWaWaSC-W5-GBpc-EUC-H';}
	.st8{fill:none;stroke:#FFFFFF;stroke-miterlimit:10;}
	.st9{fill:#FFFFFF;stroke:#FFFFFF;stroke-width:0.25;stroke-miterlimit:10;}
	.st10{fill:#040000;stroke:#FFFFFF;stroke-width:0.25;stroke-miterlimit:10;}
	.st11{fill:#040000;stroke:#FFFFFF;stroke-miterlimit:10;}
	.st12{font-size:49px;}
</style>
<g>
	<rect x="0.5" y="0.5" class="st0" width="1919" height="101"/>
	<path class="st0" d="M1919,1v100H1V1H1919 M1920,0H0v102h1920V0L1920,0z"/>
</g>
<path class="st1" d="M67.11,8h8.15v1.63h-0.47l0.47,0.7l0.23,3.26h-0.47v0.47h0.47l-0.23,10.24c0.23,8.38,2.79,12.33,2.79,12.33
	c4.42,9.08,4.19,16.52,4.19,16.52c0.23,13.03,0,36.77,0,36.77c0,3.72-3.26,3.03-3.26,3.03H61.99c-3.72,0-2.56-6.05-2.56-6.05
	l0.47-35.84c0.7-10.94,5.35-16.99,5.35-16.99c2.09-6.05,1.63-10.01,1.63-10.01V14.05h0.7l-0.23-0.7h-0.7v-2.79l0.7-0.93h-0.7V8
	H67.11z"/>
<g>
	<path class="st1" d="M137.97,57.84c1.26-5.87-4.68-7.06-4.68-7.06c-2.54,0.34-5.35,2.05-5.35,2.05l-0.59-0.35l0.81-0.61
		C117.86,49.93,107,53.32,107,53.32l11.87,15.6c0.17,0.51,0.68,0.51,0.68,0.51v15.94c-0.17,0.51-0.51,0.85-0.51,0.85
		c-5.6,0.34-6.78,1.7-6.78,1.7c-1.36,1.7,1.02,2.54,1.02,2.54c4.07,1.7,6.28,1.53,6.28,1.53c7.12-0.34,8.31-1.36,8.31-1.36
		c1.87-1.53,0.68-2.37,0.68-2.37c-3.9-2.54-6.95-2.04-6.95-2.04c-0.51-0.34-0.51-1.02-0.51-1.02l0.17-15.43
		c0.34-0.68,0.85-0.85,0.85-0.85l10.52-13.23l5.94,2.37c0.85-6.28-4.41-7.8-4.41-7.8c-3.22-0.85-6.78,2.2-6.78,2.2l3.39,2.04
		c3.39,0.17,3.9-1.02,3.9-1.02"/>
	<path class="st1" d="M107,53.32c8.99,2.88,24.83,1.19,24.83,1.19"/>
	<path class="st1" d="M109.17,56.18c11.05,2.57,23.05,0,23.05,0"/>
	<line class="st1" x1="132.61" y1="55.7" x2="130.75" y2="54.51"/>
	<path class="st1" d="M119.04,86.23c-1.02,1.36-0.68,2.04-0.68,2.04c1.7,0.68,3.9,0,3.9,0c0-1.7-0.68-2.04-0.68-2.04"/>
</g>
<g>
	<path class="st1" d="M1813.97,59.84c1.26-5.87-4.68-7.06-4.68-7.06c-2.54,0.34-5.35,2.05-5.35,2.05l-0.59-0.35l0.81-0.61
		c-10.31-1.94-21.17,1.45-21.17,1.45l11.87,15.6c0.17,0.51,0.68,0.51,0.68,0.51v15.94c-0.17,0.51-0.51,0.85-0.51,0.85
		c-5.6,0.34-6.78,1.7-6.78,1.7c-1.36,1.7,1.02,2.54,1.02,2.54c4.07,1.7,6.28,1.53,6.28,1.53c7.12-0.34,8.31-1.36,8.31-1.36
		c1.87-1.53,0.68-2.37,0.68-2.37c-3.9-2.54-6.95-2.04-6.95-2.04c-0.51-0.34-0.51-1.02-0.51-1.02l0.17-15.43
		c0.34-0.68,0.85-0.85,0.85-0.85l10.52-13.23l5.94,2.37c0.85-6.28-4.41-7.8-4.41-7.8c-3.22-0.85-6.78,2.2-6.78,2.2l3.39,2.04
		c3.39,0.17,3.9-1.02,3.9-1.02"/>
	<path class="st1" d="M1783,55.32c8.99,2.88,24.83,1.19,24.83,1.19"/>
	<path class="st1" d="M1785.17,58.18c11.05,2.57,23.05,0,23.05,0"/>
	<line class="st1" x1="1808.61" y1="57.7" x2="1806.75" y2="56.51"/>
	<path class="st1" d="M1795.04,88.23c-1.02,1.36-0.68,2.04-0.68,2.04c1.7,0.68,3.9,0,3.9,0c0-1.7-0.68-2.04-0.68-2.04"/>
</g>
<path class="st1" d="M1841.11,8h8.15v1.63h-0.47l0.47,0.7l0.23,3.26h-0.47v0.47h0.47l-0.23,10.24c0.23,8.38,2.79,12.33,2.79,12.33
	c4.42,9.08,4.19,16.52,4.19,16.52c0.23,13.03,0,36.77,0,36.77c0,3.72-3.26,3.03-3.26,3.03h-16.99c-3.72,0-2.56-6.05-2.56-6.05
	l0.47-35.84c0.7-10.94,5.35-16.99,5.35-16.99c2.09-6.05,1.63-10.01,1.63-10.01V14.05h0.7l-0.23-0.7h-0.7v-2.79l0.7-0.93h-0.7V8
	H1841.11z"/>
<g>
	<path class="st2" d="M156,25.82l5.88,42.29c0,2.21,1.1,1.47,1.1,1.47c-1.47,1.1,1.1,2.57,1.1,2.57l13.61,16.55
		c2.21,1.1,5.15,0,5.15,0l27.58-5.15c0.37-0.37,2.21-0.74,2.21-0.74l9.93-1.84c0.74-0.37,1.47,0,1.47,0l23.54-4.78
		c1.1-0.37,0-1.1,0-1.1L221.1,61.86c-0.37-0.37-0.74,0-0.74,0l-5.52-37.51c0-2.21-4.05-1.84-4.05-1.84l-51.86,1.47
		C156.37,23.98,156,25.82,156,25.82z"/>
	<path class="st2" d="M162.55,70.49l0.07,1.3l14.34,17.29c2.21,1.84,5.88,0.37,5.88,0.37l64.73-12.5c1.1-0.74,0.49-1.56,0.49-1.56"
		/>
	<polygon class="st2" points="161.88,68.11 220.13,60.31 219.99,61.86 162.1,69.36 	"/>
	<polygon class="st2" points="193.88,77.31 201.97,84.29 229.92,79.15 219.63,72.89 	"/>
	<polygon class="st2" points="169.24,71.05 170.71,72.52 174.76,71.79 173.29,70.32 	"/>
	<polygon class="st2" points="174.02,70.32 175.49,71.79 179.54,71.05 178.07,69.58 	"/>
	<polygon class="st2" points="179.17,70.13 180.49,71.24 184.14,70.69 182.81,69.58 	"/>
	<polygon class="st2" points="183.22,69.4 184.54,70.5 188.18,69.95 186.86,68.85 	"/>
	<polygon class="st2" points="187.63,68.66 188.95,69.77 192.59,69.21 191.27,68.11 	"/>
	<polygon class="st2" points="192.04,67.93 193.37,69.03 197.01,68.48 195.68,67.38 	"/>
	<polygon class="st2" points="196.09,67.56 197.41,68.66 201.05,68.11 199.73,67.01 	"/>
	<polygon class="st2" points="200.13,66.82 201.46,67.93 205.1,67.38 203.77,66.27 	"/>
	<polygon class="st2" points="204.18,66.09 205.5,67.19 209.14,66.64 207.82,65.54 	"/>
	<polygon class="st2" points="208.22,65.72 209.55,66.82 213.19,66.27 211.87,65.17 	"/>
	<polygon class="st2" points="212.27,64.99 213.59,66.09 217.24,65.54 215.91,64.43 	"/>
	<polygon class="st2" points="216.32,64.5 217.35,65.35 220.18,64.92 219.15,64.07 	"/>
	<polygon class="st2" points="219.26,64 220.97,65.35 225.69,64.68 223.98,63.33 	"/>
	<polygon class="st2" points="170.71,72.52 172.18,74 176.23,73.26 174.76,71.79 	"/>
	<polygon class="st2" points="175.49,71.79 176.96,73.26 181.01,72.52 179.54,71.05 	"/>
	<polygon class="st2" points="180.64,71.61 181.97,72.71 185.61,72.16 184.28,71.05 	"/>
	<polygon class="st2" points="184.69,70.87 186.01,71.97 189.65,71.42 188.33,70.32 	"/>
	<polygon class="st2" points="189.1,70.13 190.42,71.24 194.07,70.69 192.74,69.58 	"/>
	<polygon class="st2" points="193.51,69.4 194.84,70.5 198.48,69.95 197.15,68.85 	"/>
	<polygon class="st2" points="197.56,69.03 198.88,70.13 202.52,69.58 201.2,68.48 	"/>
	<polygon class="st2" points="201.6,68.3 202.93,69.4 206.57,68.85 205.25,67.74 	"/>
	<polygon class="st2" points="205.65,67.56 206.97,68.66 210.62,68.11 209.29,67.01 	"/>
	<polygon class="st2" points="209.7,67.19 211.02,68.3 214.66,67.74 213.34,66.64 	"/>
	<polygon class="st2" points="213.74,66.46 215.07,67.56 218.71,67.01 217.38,65.9 	"/>
	<polygon class="st2" points="217.79,65.97 218.82,66.82 221.65,66.4 220.62,65.54 	"/>
	<polygon class="st2" points="172.55,74 174.02,75.47 178.07,74.73 176.6,73.26 	"/>
	<polygon class="st2" points="177.33,73.26 178.8,74.73 182.85,74 181.38,72.52 	"/>
	<polygon class="st2" points="182.48,73.08 183.8,74.18 187.45,73.63 186.12,72.52 	"/>
	<polygon class="st2" points="186.53,72.34 187.85,73.44 191.49,72.89 190.17,71.79 	"/>
	<polygon class="st2" points="190.94,71.61 192.26,72.71 195.9,72.16 194.58,71.05 	"/>
	<polygon class="st2" points="195.35,70.87 196.68,71.97 200.32,71.42 198.99,70.32 	"/>
	<polygon class="st2" points="199.4,70.5 200.72,71.61 204.36,71.05 203.04,69.95 	"/>
	<polygon class="st2" points="203.44,69.77 204.77,70.87 208.41,70.32 207.08,69.21 	"/>
	<polygon class="st2" points="207.49,69.03 208.81,70.13 212.45,69.58 211.13,68.48 	"/>
	<polygon class="st2" points="211.54,68.66 212.86,69.77 216.5,69.21 215.18,68.11 	"/>
	<polygon class="st2" points="215.58,67.93 216.9,69.03 220.55,68.48 219.22,67.38 	"/>
	<polygon class="st2" points="219.63,67.44 220.66,68.3 223.49,67.87 222.46,67.01 	"/>
	<polygon class="st2" points="174.02,75.47 175.49,76.94 179.54,76.2 178.07,74.73 	"/>
	<polygon class="st2" points="178.8,74.73 180.27,76.2 184.32,75.47 182.85,74 	"/>
	<polygon class="st2" points="183.95,74.55 185.28,75.65 188.92,75.1 187.59,74 	"/>
	<polygon class="st2" points="188,73.81 189.32,74.92 192.96,74.36 191.64,73.26 	"/>
	<polygon class="st2" points="192.41,73.08 193.73,74.18 197.38,73.63 196.05,72.52 	"/>
	<polygon class="st2" points="196.82,72.34 198.15,73.44 201.79,72.89 200.46,71.79 	"/>
	<polygon class="st2" points="200.87,71.97 202.19,73.08 205.83,72.52 204.51,71.42 	"/>
	<polygon class="st2" points="204.91,71.24 206.24,72.34 209.88,71.79 208.56,70.69 	"/>
	<polygon class="st2" points="208.96,70.5 210.28,71.61 213.93,71.05 212.6,69.95 	"/>
	<polygon class="st2" points="213.01,70.13 214.33,71.24 217.97,70.69 216.65,69.58 	"/>
	<polygon class="st2" points="217.05,69.4 218.38,70.5 222.02,69.95 220.69,68.85 	"/>
	<polygon class="st2" points="221.1,68.91 222.13,69.77 224.96,69.34 223.93,68.48 	"/>
	<polygon class="st2" points="220.36,65.11 222.08,66.46 226.8,65.78 225.08,64.43 	"/>
	<polygon class="st2" points="222.57,66.58 224.28,67.93 229,67.25 227.29,65.9 	"/>
	<polygon class="st2" points="223.67,68.05 225.39,69.4 230.11,68.72 228.39,67.38 	"/>
	<path class="st2" d="M164.09,65.9l52.22-6.62c1.84-2.21,0.74-5.15,0.74-5.15l-3.31-28.69c-1.47-1.47-4.78-1.47-4.78-1.47
		l-49.65,1.47c-1.47,0.74-1.47,2.94-1.47,2.94l4.78,34.94C162.99,65.54,164.09,65.9,164.09,65.9z"/>
</g>
<g>
	<path class="st2" d="M1674,24.82l5.88,42.29c0,2.21,1.1,1.47,1.1,1.47c-1.47,1.1,1.1,2.57,1.1,2.57l13.61,16.55
		c2.21,1.1,5.15,0,5.15,0l27.58-5.15c0.37-0.37,2.21-0.74,2.21-0.74l9.93-1.84c0.74-0.37,1.47,0,1.47,0l23.54-4.78
		c1.1-0.37,0-1.1,0-1.1l-26.48-13.24c-0.37-0.37-0.74,0-0.74,0l-5.52-37.51c0-2.21-4.05-1.84-4.05-1.84l-51.86,1.47
		C1674.37,22.98,1674,24.82,1674,24.82z"/>
	<path class="st2" d="M1680.55,69.49l0.07,1.3l14.34,17.29c2.21,1.84,5.88,0.37,5.88,0.37l64.73-12.5c1.1-0.74,0.49-1.56,0.49-1.56"
		/>
	<polygon class="st2" points="1679.88,67.11 1738.13,59.31 1737.99,60.86 1680.1,68.36 	"/>
	<polygon class="st2" points="1711.88,76.31 1719.97,83.29 1747.92,78.15 1737.63,71.89 	"/>
	<polygon class="st2" points="1687.24,70.05 1688.71,71.52 1692.76,70.79 1691.29,69.32 	"/>
	<polygon class="st2" points="1692.02,69.32 1693.49,70.79 1697.54,70.05 1696.07,68.58 	"/>
	<polygon class="st2" points="1697.17,69.13 1698.49,70.24 1702.14,69.69 1700.81,68.58 	"/>
	<polygon class="st2" points="1701.22,68.4 1702.54,69.5 1706.18,68.95 1704.86,67.85 	"/>
	<polygon class="st2" points="1705.63,67.66 1706.95,68.77 1710.59,68.21 1709.27,67.11 	"/>
	<polygon class="st2" points="1710.04,66.93 1711.37,68.03 1715.01,67.48 1713.68,66.38 	"/>
	<polygon class="st2" points="1714.09,66.56 1715.41,67.66 1719.05,67.11 1717.73,66.01 	"/>
	<polygon class="st2" points="1718.13,65.82 1719.46,66.93 1723.1,66.38 1721.77,65.27 	"/>
	<polygon class="st2" points="1722.18,65.09 1723.5,66.19 1727.14,65.64 1725.82,64.54 	"/>
	<polygon class="st2" points="1726.22,64.72 1727.55,65.82 1731.19,65.27 1729.87,64.17 	"/>
	<polygon class="st2" points="1730.27,63.99 1731.59,65.09 1735.24,64.54 1733.91,63.43 	"/>
	<polygon class="st2" points="1734.32,63.5 1735.35,64.35 1738.18,63.92 1737.15,63.07 	"/>
	<polygon class="st2" points="1737.26,63 1738.97,64.35 1743.69,63.68 1741.98,62.33 	"/>
	<polygon class="st2" points="1688.71,71.52 1690.18,73 1694.23,72.26 1692.76,70.79 	"/>
	<polygon class="st2" points="1693.49,70.79 1694.96,72.26 1699.01,71.52 1697.54,70.05 	"/>
	<polygon class="st2" points="1698.64,70.61 1699.97,71.71 1703.61,71.16 1702.28,70.05 	"/>
	<polygon class="st2" points="1702.69,69.87 1704.01,70.97 1707.65,70.42 1706.33,69.32 	"/>
	<polygon class="st2" points="1707.1,69.13 1708.42,70.24 1712.07,69.69 1710.74,68.58 	"/>
	<polygon class="st2" points="1711.51,68.4 1712.84,69.5 1716.48,68.95 1715.15,67.85 	"/>
	<polygon class="st2" points="1715.56,68.03 1716.88,69.13 1720.52,68.58 1719.2,67.48 	"/>
	<polygon class="st2" points="1719.6,67.3 1720.93,68.4 1724.57,67.85 1723.25,66.74 	"/>
	<polygon class="st2" points="1723.65,66.56 1724.97,67.66 1728.62,67.11 1727.29,66.01 	"/>
	<polygon class="st2" points="1727.7,66.19 1729.02,67.3 1732.66,66.74 1731.34,65.64 	"/>
	<polygon class="st2" points="1731.74,65.46 1733.07,66.56 1736.71,66.01 1735.38,64.9 	"/>
	<polygon class="st2" points="1735.79,64.97 1736.82,65.82 1739.65,65.4 1738.62,64.54 	"/>
	<polygon class="st2" points="1690.55,73 1692.02,74.47 1696.07,73.73 1694.6,72.26 	"/>
	<polygon class="st2" points="1695.33,72.26 1696.8,73.73 1700.85,73 1699.38,71.52 	"/>
	<polygon class="st2" points="1700.48,72.08 1701.8,73.18 1705.45,72.63 1704.12,71.52 	"/>
	<polygon class="st2" points="1704.53,71.34 1705.85,72.44 1709.49,71.89 1708.17,70.79 	"/>
	<polygon class="st2" points="1708.94,70.61 1710.26,71.71 1713.9,71.16 1712.58,70.05 	"/>
	<polygon class="st2" points="1713.35,69.87 1714.68,70.97 1718.32,70.42 1716.99,69.32 	"/>
	<polygon class="st2" points="1717.4,69.5 1718.72,70.61 1722.36,70.05 1721.04,68.95 	"/>
	<polygon class="st2" points="1721.44,68.77 1722.77,69.87 1726.41,69.32 1725.08,68.21 	"/>
	<polygon class="st2" points="1725.49,68.03 1726.81,69.13 1730.45,68.58 1729.13,67.48 	"/>
	<polygon class="st2" points="1729.54,67.66 1730.86,68.77 1734.5,68.21 1733.18,67.11 	"/>
	<polygon class="st2" points="1733.58,66.93 1734.9,68.03 1738.55,67.48 1737.22,66.38 	"/>
	<polygon class="st2" points="1737.63,66.44 1738.66,67.3 1741.49,66.87 1740.46,66.01 	"/>
	<polygon class="st2" points="1692.02,74.47 1693.49,75.94 1697.54,75.2 1696.07,73.73 	"/>
	<polygon class="st2" points="1696.8,73.73 1698.27,75.2 1702.32,74.47 1700.85,73 	"/>
	<polygon class="st2" points="1701.95,73.55 1703.28,74.65 1706.92,74.1 1705.59,73 	"/>
	<polygon class="st2" points="1706,72.81 1707.32,73.92 1710.96,73.36 1709.64,72.26 	"/>
	<polygon class="st2" points="1710.41,72.08 1711.73,73.18 1715.38,72.63 1714.05,71.52 	"/>
	<polygon class="st2" points="1714.82,71.34 1716.15,72.44 1719.79,71.89 1718.46,70.79 	"/>
	<polygon class="st2" points="1718.87,70.97 1720.19,72.08 1723.83,71.52 1722.51,70.42 	"/>
	<polygon class="st2" points="1722.91,70.24 1724.24,71.34 1727.88,70.79 1726.56,69.69 	"/>
	<polygon class="st2" points="1726.96,69.5 1728.28,70.61 1731.93,70.05 1730.6,68.95 	"/>
	<polygon class="st2" points="1731.01,69.13 1732.33,70.24 1735.97,69.69 1734.65,68.58 	"/>
	<polygon class="st2" points="1735.05,68.4 1736.38,69.5 1740.02,68.95 1738.69,67.85 	"/>
	<polygon class="st2" points="1739.1,67.91 1740.13,68.77 1742.96,68.34 1741.93,67.48 	"/>
	<polygon class="st2" points="1738.36,64.11 1740.08,65.46 1744.8,64.78 1743.08,63.43 	"/>
	<polygon class="st2" points="1740.57,65.58 1742.28,66.93 1747,66.25 1745.29,64.9 	"/>
	<polygon class="st2" points="1741.67,67.05 1743.39,68.4 1748.11,67.72 1746.39,66.38 	"/>
	<path class="st2" d="M1682.09,64.9l52.22-6.62c1.84-2.21,0.74-5.15,0.74-5.15l-3.31-28.69c-1.47-1.47-4.78-1.47-4.78-1.47
		l-49.65,1.47c-1.47,0.74-1.47,2.94-1.47,2.94l4.78,34.94C1680.99,64.54,1682.09,64.9,1682.09,64.9z"/>
</g>
<a target="_top" xlink:href="home.html">
<rect x="1034.83" y="29.39" class="st3" width="127.68" height="53.61"/>
<text transform="matrix(1 0 0 1 1034.835 69.4023)" class="st4 st5 st6">home</text>
</a>
<rect x="348.26" y="29.51" class="st3" width="475.74" height="49.49"/>
<text transform="matrix(1 0 0 1 348.2554 68.3911)" class="st4 st7 st6">趣味の部屋</text>
<g>
	<rect x="606" y="7" class="st8" width="43.38" height="89"/>
	<line class="st8" x1="607.12" y1="8.12" x2="607.72" y2="96"/>
	<circle class="st9" cx="610.11" cy="50" r="1.12"/>
	<circle class="st9" cx="610.11" cy="66.46" r="1.12"/>
	<path class="st10" d="M609.74,54.12"/>
	<circle class="st9" cx="610.31" cy="55.68" r="1.46"/>
	<path class="st9" d="M609.74,54.87h6.34c1.58,0,1.06,1.5,1.06,1.5h-7.39"/>
	<line class="st11" x1="613.48" y1="7.75" x2="613.48" y2="96"/>
	<line class="st11" x1="621.33" y1="8.12" x2="621.33" y2="96"/>
	<line class="st11" x1="628.81" y1="8.12" x2="629.18" y2="96"/>
	<line class="st11" x1="637.04" y1="8.12" x2="637.21" y2="96"/>
	<line class="st11" x1="647.51" y1="8.12" x2="647.51" y2="96"/>
</g>
<a target="_top" xlink:href="recipe.html">
<rect x="1208.52" y="27.21" class="st3" width="152.48" height="47.79"/>
<text transform="matrix(1 0 0 1 1208.5205 68.0552)" class="st4 st5 st12">recipe</text>
</a>
<a target="_top" xlink:href="blog.html">
<rect x="1410.39" y="27.49" class="st3" width="122.61" height="43.51"/>
<text transform="matrix(1 0 0 1 1410.3936 67.4995)" class="st4 st5 st6">blog</text>
</a>
</svg>
